# xmcd
#
# Track frame offsets:
#	150
#	21247
#	34012
#	50497
#	67122
#	84092
#	98957
#	112035
#	128035
#	147510
#	162152
#	178440
#	197552
#	215515
#
# Disc length: 3074 seconds
#
# Revision: 6
# Processed by: cddbd v1.5.2PL0 Copyright (c) Steve Scherf et al.
# Submitted via: EZCDAudioConverter 2.4.0.1
#
DISCID=cc0c000e
DTITLE=Rionegro and Solimôes - (Sertanejo) Rionegro and Solimões - Bate o Pé
DYEAR=1999
DGENRE=Sertanejo
TTITLE0=Só Lembranças
TTITLE1=Bate O Pé
TTITLE2=Casa Cheia
TTITLE3=Orvalho Da Saudade
TTITLE4=Saudade Aperta
TTITLE5=Eu Menti
TTITLE6=Brete Da Solidão
TTITLE7=Ô de Casa, Ô de Fora
TTITLE8=Um Pouquinho De Você
TTITLE9=Uai Uai
TTITLE10=Ela Não Veio
TTITLE11=Eu Queria Te Amar
TTITLE12=Pororoca
TTITLE13=Na Virada Do 2000
EXTD=
EXTT0=
EXTT1=
EXTT2=
EXTT3=
EXTT4=
EXTT5=
EXTT6=
EXTT7=
EXTT8=
EXTT9=
EXTT10=
EXTT11=
EXTT12=
EXTT13=
PLAYORDER=
